<?xml version="1.0" ?>
<!DOCTYPE svg  PUBLIC '-//W3C//DTD SVG 1.1//EN'  'http://www.w3.org/Graphics/SVG/1.1/DTD/svg11.dtd'>
<!-- Uploaded to: SVG Repo, www.svgrepo.com, Generator: SVG Repo Mixer Tools -->
<svg fill="#000000" width="800px" height="800px" viewBox="0 0 512 512" version="1.1" xml:space="preserve" xmlns="http://www.w3.org/2000/svg" xmlns:xlink="http://www.w3.org/1999/xlink">
<g id="_x34_78_x2C__Data_x2C__head_x2C__human_x2C__knowledge_x2C__network">
<g>
<path d="M318.123,104.301c-1.579-1.592-3.777-2.564-6.206-2.564    c-2.431,0-4.615,0.973-6.209,2.564c-1.591,1.592-2.563,3.777-2.563,6.207c0,2.348,0.918,4.479,2.416,6.071l0.147,0.135    c1.459,1.458,3.415,2.402,5.602,2.536c0.188-0.025,0.403-0.053,0.607-0.053c0.202,0,0.403,0.027,0.606,0.053    c2.186-0.134,4.142-1.078,5.6-2.536c1.578-1.593,2.564-3.778,2.564-6.206C320.688,108.078,319.701,105.893,318.123,104.301     M268.764,183.236c-1.592-1.566-3.777-2.564-6.206-2.564s-4.628,0.973-6.207,2.564c-1.592,1.592-2.578,3.778-2.578,6.207    c0,2.348,0.932,4.506,2.428,6.071l0.149,0.136c1.565,1.564,3.711,2.537,6.085,2.563h0.026h0.095h0.08h0.028    c2.374-0.025,4.532-0.998,6.086-2.563c1.591-1.594,2.575-3.779,2.575-6.207C271.327,187.015,270.343,184.828,268.764,183.236z     M344.759,238.504c-1.579-1.564-3.778-2.563-6.206-2.563c-2.417,0-4.615,0.999-6.207,2.563c-1.594,1.593-2.563,3.806-2.563,6.208    c0,2.375,0.917,4.506,2.414,6.071l0.149,0.135c1.565,1.565,3.724,2.537,6.098,2.564h0.028h0.081h0.08h0.026    c2.376-0.027,4.534-0.999,6.1-2.564c1.579-1.592,2.563-3.777,2.563-6.206C347.322,242.31,346.338,240.097,344.759,238.504z     M203.038,265.465c-1.605-1.594-3.804-2.564-6.219-2.564c-2.348,0-4.494,0.918-6.073,2.401l-0.135,0.163    c-1.591,1.592-2.563,3.777-2.563,6.206s0.972,4.614,2.563,6.208c1.565,1.564,3.726,2.535,6.1,2.563h0.026h0.083h0.081h0.026    c2.374-0.027,4.534-0.998,6.1-2.563c1.578-1.594,2.563-3.779,2.563-6.208S204.617,267.057,203.038,265.465z M158.875,175.193    c5.506,0,10.418,2.214,14.047,5.857c3.63,3.643,5.857,8.554,5.857,14.06c0,5.505-2.227,10.524-5.857,14.167l-0.121,0.108    c-3.617,3.509-8.541,5.749-13.926,5.749c-5.504,0-10.537-2.24-14.045-5.857c-3.63-3.643-5.857-8.662-5.857-14.167    c0-5.506,2.227-10.417,5.857-14.06C148.337,177.407,153.37,175.193,158.875,175.193z M196.819,256.208    c4.209,0,8.068,1.754,10.874,4.561c2.808,2.834,4.561,6.692,4.561,10.902s-1.753,8.069-4.561,10.876    c-1.983,1.996-4.682,3.508-7.61,4.236v33.248l35.016,60.531V143.35c0-1.861,1.39-3.266,3.278-3.266    c1.864,0,3.266,1.404,3.266,3.266v168.02l17.568-30.333v-76.562c-2.928-0.594-5.504-2.105-7.61-4.102l-0.121-0.244    c-2.685-2.807-4.331-6.557-4.331-10.658c0-4.211,1.753-8.069,4.452-10.877c2.808-2.807,6.666-4.561,11.01-4.561    c4.21,0,8.068,1.754,10.768,4.561c2.808,2.699,4.561,6.559,4.561,10.877c0,4.236-1.753,8.096-4.452,10.902    c-2.105,1.996-4.669,3.508-7.61,4.102v77.37c0,0.702-0.229,1.296-0.58,1.89l-23.654,40.857v122.466h66.98v-218.7l-32.437-56.078    c-0.351-0.485-0.581-1.188-0.581-1.889V99.578c0-1.781,1.525-3.293,3.387-3.293c1.768,0,3.279,1.512,3.279,3.293v70.003    l26.352,45.554v-89.568c-2.927-0.595-5.505-2.105-7.61-4.102l-0.242-0.244c-2.578-2.807-4.21-6.557-4.21-10.768    c0-4.209,1.632-8.069,4.452-10.768c2.808-2.807,6.667-4.561,10.876-4.561c4.224,0,8.082,1.754,10.891,4.453    c2.819,2.806,4.572,6.666,4.572,10.875c0,4.318-1.753,8.204-4.572,11.012c-1.985,1.996-4.684,3.507-7.49,4.102v256.966    l19.902-20.024V259.716c-2.928-0.565-5.504-2.104-7.488-4.075l-0.229-0.242c-2.699-2.807-4.332-6.558-4.332-10.66    c0-4.21,1.754-8.068,4.561-10.875s6.559-4.588,10.89-4.588c4.21,0,8.082,1.781,10.888,4.588c2.809,2.807,4.439,6.665,4.439,10.875    c0,4.211-1.631,8.068-4.439,10.902c-2.117,1.971-4.682,3.51-7.609,4.075v104.222c0,0.918-0.35,1.754-0.945,2.321l-25.637,25.638    v55.161h44.488l7.137-115.207c0.717-10.901,2.348-20.726,4.695-28.687c2.457-8.662,5.857-15.463,9.596-19.43    c27.984-30.441,44.257-67.791,45.781-104.438c1.404-34.543-10.079-68.601-37.12-96.234c-25.407-25.881-61.934-39.697-99.512-41.91    c-39.104-2.348-79.502,7.718-109.702,29.496c-61.123,43.906-60.639,91.538-60.3,125.271c0.121,15.328,0.228,27.984-5.263,36.756    c-4.925,8.096-11.348,15.111-16.975,21.319c-6.207,6.909-11.59,12.765-12.413,16.975c-0.823,3.751,3.387,7.017,16.853,9.716    l1.646,0.351c1.525,0.241,2.348,0.458,4.103,1.159h0.23c10.646,4.346,9.363,17.568,7.959,32.439    c-0.579,5.504-1.174,11.469-1.051,16.866c0.228,14.167,5.14,26.23,28.915,25.88c3.751-0.135,7.503-0.352,11.011-0.594    c14.168-0.944,25.53-1.754,35.353,9.363c2.227,2.564,4.101,7.018,5.263,12.766c0.944,5.02,1.525,11.118,1.295,18.027    l-1.876,50.114h39.698v-54.217c-0.472-0.243-0.944-0.593-1.174-1.16l-39.805-68.843c-0.351-0.594-0.595-1.188-0.595-1.997v-34.058    c-2.915-0.729-5.613-2.132-7.61-4.236c-2.806-2.807-4.561-6.666-4.561-10.876s1.755-8.068,4.561-10.902l0.244-0.216    C188.965,257.854,192.717,256.208,196.819,256.208z M80.925,469.24c-1.835,0-3.32-1.484-3.32-3.319c0-1.836,1.485-3.32,3.32-3.32    h250.92c1.821,0,3.306,1.484,3.306,3.32c0,1.835-1.484,3.319-3.306,3.319H80.925z M227.854,485.999    c-1.835,0-3.32-1.485-3.32-3.319c0-1.836,1.485-3.32,3.32-3.32h173.63c1.821,0,3.32,1.484,3.32,3.32    c0,1.834-1.499,3.319-3.32,3.319H227.854z M419.255,485.999c-1.821,0-3.318-1.485-3.318-3.319c0-1.836,1.497-3.32,3.318-3.32    h21.712c1.821,0,3.318,1.484,3.318,3.32c0,1.834-1.497,3.319-3.318,3.319H419.255z M71.034,485.081    c-1.834,0-3.318-1.484-3.318-3.319c0-1.836,1.484-3.319,3.318-3.319h82.282c1.835,0,3.32,1.483,3.32,3.319    c0,1.835-1.485,3.319-3.32,3.319H71.034z M104.188,224.957c-0.958,1.566-2.997,2.051-4.548,1.08    c-1.551-0.944-2.023-2.996-1.079-4.533c4.479-7.233,4.358-18.973,4.237-33.275c-0.324-35.082-0.796-84.792,63.094-130.723    c15.923-11.442,34.274-19.836,53.662-25.07c19.85-5.344,40.857-7.395,61.53-6.019c1.821,0.108,3.197,1.7,3.076,3.508    c-0.121,1.835-1.7,3.212-3.521,3.104c-19.929-1.35-40.196,0.647-59.371,5.802c-18.674,5.046-36.297,13.088-51.503,24.019    c-61.125,43.961-60.679,91.674-60.369,125.324C109.543,203.53,109.652,216.105,104.188,224.957z M168.294,185.719    c-2.428-2.401-5.749-3.886-9.419-3.886c-3.669,0-7.001,1.484-9.417,3.886c-2.402,2.402-3.885,5.748-3.885,9.418    c0,3.671,1.483,6.99,3.885,9.418c2.416,2.402,5.749,3.887,9.417,3.887c3.59,0,6.856-1.431,9.256-3.725l0.149-0.162    c2.402-2.428,3.899-5.747,3.899-9.418C172.179,191.467,170.696,188.147,168.294,185.719z" style="fill-rule:evenodd;clip-rule:evenodd;"/>
</g>
</g>
<g id="Layer_1"/>
</svg>