<?xml version="1.0" encoding="iso-8859-1"?>
<!-- Uploaded to: SVG Repo, www.svgrepo.com, Generator: SVG Repo Mixer Tools -->
<!DOCTYPE svg PUBLIC "-//W3C//DTD SVG 1.1//EN" "http://www.w3.org/Graphics/SVG/1.1/DTD/svg11.dtd">
<svg fill="#000000" version="1.1" id="Capa_1" xmlns="http://www.w3.org/2000/svg" xmlns:xlink="http://www.w3.org/1999/xlink" 
	 width="800px" height="800px" viewBox="0 0 45.626 45.626"
	 xml:space="preserve">
<g>
	<g>
		<path d="M5.628,12.876h-2.69c-1.507,0-2.726,1.263-2.726,2.77v6.902c0,1.508,1.219,2.749,2.726,2.749h2.689
			c1.507,0,2.731-1.241,2.731-2.749v-6.902C8.359,14.139,7.135,12.876,5.628,12.876z M6.385,21.063c0,0.412-0.346,0.745-0.757,0.745
			h-2.69c-0.412,0-0.771-0.333-0.771-0.745v-5.417c0-0.41,0.358-0.7,0.771-0.7h2.689c0.411,0,0.757,0.29,0.757,0.7L6.385,21.063
			L6.385,21.063z"/>
		<path d="M19.702,12.634h5.984c1.533,0,2.824-1.287,2.824-2.823V2.782C28.511,1.247,27.22,0,25.687,0h-5.984
			c-1.534,0-2.734,1.247-2.734,2.782V9.81C16.968,11.346,18.168,12.634,19.702,12.634z M18.967,2.782
			C18.967,2.363,19.284,2,19.702,2h5.984c0.418,0,0.732,0.363,0.732,0.782v5.517c0,0.419-0.314,0.79-0.732,0.79h-5.984
			c-0.418,0-0.735-0.371-0.735-0.79V2.782z"/>
		<path d="M43.136,13.906h-9.057c-1.236,0-2.206,0.967-2.206,2.206v5.669c0,1.238,0.97,2.213,2.206,2.213h0.884v0.135
			c0,0.841,0.66,1.501,1.501,1.501h4.285c0.842,0,1.485-0.66,1.485-1.501v-0.135h0.899c1.237,0,2.28-0.976,2.28-2.213v-5.669
			C45.415,14.873,44.372,13.906,43.136,13.906z M43.325,21.729c0,0.147-0.12,0.266-0.268,0.266h-9.01
			c-0.146,0-0.267-0.119-0.267-0.266v-5.647c0-0.147,0.118-0.267,0.267-0.267h9.01c0.146,0,0.268,0.119,0.268,0.267V21.729z"/>
		<path d="M21.374,30.273c-5.478,0.729-9.324,5.762-8.594,11.237l0.046,0.329c0.289,2.171,2.142,3.786,4.333,3.786h11.072
			c2.191,0,4.045-1.615,4.334-3.786l0.045-0.333c0.107-0.842,0.115-1.757,0-2.642C31.88,33.39,26.849,29.544,21.374,30.273z"/>
		<circle cx="22.694" cy="21.698" r="7.071"/>
		<path d="M13.868,7.548c-0.617-0.898-1.846-1.125-2.749-0.508L8.608,8.768C7.709,9.387,7.482,10.617,8.1,11.516
			c0.383,0.557,1.001,0.856,1.629,0.856c0.387,0,0.776-0.113,1.119-0.348l2.512-1.729C14.259,9.677,14.486,8.447,13.868,7.548z"/>
		<path d="M31.269,10.296l2.514,1.729c0.342,0.235,0.732,0.348,1.117,0.348c0.63,0,1.246-0.299,1.63-0.856
			c0.618-0.899,0.394-2.129-0.507-2.748l-2.514-1.728c-0.898-0.617-2.127-0.39-2.748,0.508C30.144,8.447,30.371,9.677,31.269,10.296
			z"/>
	</g>
</g>
</svg>