<?xml version="1.0" encoding="iso-8859-1"?>
<!-- Uploaded to: SVG Repo, www.svgrepo.com, Generator: SVG Repo Mixer Tools -->
<!DOCTYPE svg PUBLIC "-//W3C//DTD SVG 1.1//EN" "http://www.w3.org/Graphics/SVG/1.1/DTD/svg11.dtd">
<svg fill="#000000" version="1.1" id="Capa_1" xmlns="http://www.w3.org/2000/svg" xmlns:xlink="http://www.w3.org/1999/xlink" 
	 width="800px" height="800px" viewBox="0 0 447.271 447.271"
	 xml:space="preserve">
<g>
	<path d="M417.989,140.085c-7.609-37.399-2.751-115.71-132.254-136.36C156.266-16.946,39.595,48.752,68.942,192.341
		c0,26.172-51.822,66.801-39.336,80.535c12.486,13.734,33.673,14.271,33.673,14.271s-13.773,26.171-7.579,33.399
		c6.189,7.229,23.411,4.136,23.411,4.136s-16.002,11.53-16.002,20.476c0,8.954,27.02,20.846,27.02,20.846
		s-4.955,49.524,35.62,46.091s47.408-14.896,47.408-14.896l12.037,50.071h157.041l-5.521-108.824
		C336.713,338.456,433.147,233.76,417.989,140.085z M187.423,295.751c31.542-114.042,0,0,31.542-114.042
		c-19.504-7.872-33.273-26.981-33.273-49.31c0-29.361,23.796-53.163,53.154-53.163c29.352,0,53.152,23.792,53.152,53.163
		c0,19.987-11.022,37.399-27.332,46.481c30.366,116.871,30.366,116.871,30.366,116.871S191.417,295.751,187.423,295.751z"/>
</g>
</svg>